<svg xmlns="http://www.w3.org/2000/svg" viewBox="0 0 128 128">
  <defs>
    <linearGradient id="kiro-bg" x1="15%" y1="15%" x2="85%" y2="85%">
      <stop offset="0%" stop-color="#312e81"/>
      <stop offset="45%" stop-color="#4338ca"/>
      <stop offset="100%" stop-color="#7c3aed"/>
    </linearGradient>
    <linearGradient id="kiro-k" x1="0%" y1="0%" x2="100%" y2="100%">
      <stop offset="0%" stop-color="#a855f7"/>
      <stop offset="100%" stop-color="#f472b6"/>
    </linearGradient>
    <radialGradient id="kiro-glow" cx="68%" cy="26%" r="45%">
      <stop offset="0%" stop-color="#fef3c7" stop-opacity="0.9"/>
      <stop offset="100%" stop-color="#fef3c7" stop-opacity="0"/>
    </radialGradient>
  </defs>

  <g fill="none" fill-rule="evenodd">
    <circle cx="64" cy="64" r="60" fill="url(#kiro-bg)"/>
    <circle cx="64" cy="64" r="46" fill="rgba(255,255,255,0.05)"/>
    <path
      d="M38 28h12c2.2 0 4 1.8 4 4v22l22-26c1.5-1.8 4.2-2 6-0.5l8 6c1.8 1.5 2 4.2 0.5 6L70 64l20 18c1.7 1.5 1.9 4.1 0.4 5.8l-7.2 7.8c-1.5 1.7-4.1 1.9-5.8 0.4L58 78.4l-4 4V96c0 2.2-1.8 4-4 4H38c-2.2 0-4-1.8-4-4V32c0-2.2 1.8-4 4-4z"
      fill="url(#kiro-k)"/>
    <path
      d="M86 30c6 0 11 4.9 11 11s-4.9 11-11 11-11-4.9-11-11 4.9-11 11-11z"
      fill="#fbcfe8"/>
    <circle cx="88" cy="30" r="26" fill="url(#kiro-glow)"/>
  </g>
</svg>
